<svg width="32" height="29" viewBox="0 0 32 29" fill="none" xmlns="http://www.w3.org/2000/svg">
<path d="M30.9604 9.12981C30.6754 4.91491 27.3755 1 22.8906 1C19.9656 1 17.4157 2.54496 15.9908 4.86991C14.5658 2.55996 12.0009 1 9.09097 1C4.59108 1 1.29114 4.89991 1.02115 9.12981C0.976152 9.7148 1.00612 10.3148 1.08112 10.8998C1.6061 14.5447 4.18606 17.1846 6.721 19.6446C9.34594 22.1795 12.2258 24.5795 15.1208 26.8144C15.6308 27.2044 16.3658 27.2044 16.8758 26.8144C19.7557 24.5795 22.5306 22.1795 25.2756 19.6446C27.8855 17.2596 30.3905 14.5597 30.9155 10.8998C31.0055 10.3148 31.0204 9.7148 30.9754 9.12981H30.9604Z" stroke="black" stroke-width="1.91" stroke-miterlimit="10"/>
</svg>
