<svg width="30" height="30" viewBox="0 0 30 30" fill="none" xmlns="http://www.w3.org/2000/svg">
<path d="M30 14.418V28.6306C30 29.3861 29.3877 30 28.6305 30H20.4593C19.707 30 19.0963 29.3894 19.0963 28.6372V21.3704C19.0963 20.238 18.6403 19.2191 17.9029 18.4735C17.1885 17.7674 16.2156 17.3181 15.1391 17.2819C12.8066 17.2029 10.8955 19.2389 10.8955 21.5728V28.6372C10.8955 29.3894 10.2848 30 9.53251 30H1.36132C0.609054 30 0 29.391 0 28.6388V14.418C0 14.0493 0.149794 13.6888 0.413169 13.4353L14.056 0.381445C14.5827 -0.127148 15.4173 -0.127148 15.944 0.381445L29.5786 13.4353C29.842 13.6905 30 14.0493 30 14.418Z" fill="black"/>
</svg>
