<svg width="45" height="45" viewBox="0 0 45 45" fill="none" xmlns="http://www.w3.org/2000/svg">
<g clip-path="url(#clip0_21_245)">
<path d="M22.4989 44.9978C34.9247 44.9978 44.9978 34.9247 44.9978 22.4989C44.9978 10.0731 34.9247 0 22.4989 0C10.0731 0 0 10.0731 0 22.4989C0 34.9247 10.0731 44.9978 22.4989 44.9978Z" fill="#DBDBDB"/>
<path d="M22.4989 31.058C28.0555 31.058 32.56 26.5535 32.56 20.997C32.56 15.4404 28.0555 10.9359 22.4989 10.9359C16.9424 10.9359 12.4379 15.4404 12.4379 20.997C12.4379 26.5535 16.9424 31.058 22.4989 31.058Z" fill="white"/>
<path d="M37.249 38.0571C33.4047 41.7074 28.2115 43.9484 22.5011 43.9484C16.7907 43.9484 11.5953 41.7074 7.7489 38.0571C9.54175 35.2881 12.6598 33.4564 16.2024 33.4564H28.7998C32.3424 33.4564 35.4583 35.2881 37.249 38.0571Z" fill="white"/>
</g>
<defs>
<clipPath id="clip0_21_245">
<rect width="45" height="45" fill="white"/>
</clipPath>
</defs>
</svg>
