<svg width="17" height="18" viewBox="0 0 17 18" fill="none" xmlns="http://www.w3.org/2000/svg">
<path d="M4.88421 16.0273C4.77683 16.0273 4.69182 15.9277 4.69182 15.8007C4.69182 12.3951 2.67298 9.62434 0.192398 9.62434C0.0850129 9.62434 0 9.52469 0 9.39771C0 9.27072 0.084118 9.17196 0.192398 9.17196C2.67298 9.17196 4.69092 6.403 4.69182 2.99824C4.6936 2.86949 4.77772 2.77161 4.88421 2.77161C4.9907 2.77161 5.07661 2.87125 5.07661 2.99824C5.07661 3.00265 5.07661 3.00882 5.07572 3.01587C5.08377 6.41094 7.10171 9.17108 9.57513 9.17108C9.68252 9.17108 9.76753 9.26984 9.76753 9.39683C9.76753 9.52381 9.68341 9.62346 9.57513 9.62346C7.09365 9.62346 5.07572 12.3942 5.07572 15.7998C5.07572 15.9268 4.9916 16.0265 4.88421 16.0265V16.0273Z" fill="white"/>
<path d="M10.8691 6.57496C10.8154 6.57496 10.7734 6.52557 10.7734 6.46208C10.7734 4.77337 9.77292 3.39947 8.54247 3.39947C8.48878 3.39947 8.44672 3.35009 8.44672 3.2866C8.44672 3.2231 8.48878 3.1746 8.54247 3.1746C9.77202 3.1746 10.7734 1.80159 10.7734 0.112875C10.7734 0.0485009 10.8163 0 10.8691 0C10.9219 0 10.9649 0.0493827 10.9649 0.112875V0.118166C10.9685 1.80511 11.9689 3.17372 13.1958 3.17372C13.2495 3.17372 13.2916 3.2231 13.2916 3.28571C13.2916 3.34832 13.2495 3.39859 13.1958 3.39859C11.9654 3.39859 10.9649 4.77249 10.9649 6.4612C10.9649 6.52469 10.9228 6.57407 10.87 6.57407L10.8691 6.57496Z" fill="white"/>
<path d="M12.8826 18C12.8056 18 12.7448 17.9286 12.7448 17.8377C12.7448 15.41 11.3058 13.4347 9.53666 13.4347C9.4597 13.4347 9.39885 13.3633 9.39885 13.2725C9.39885 13.1816 9.45881 13.1111 9.53666 13.1111C11.3049 13.1111 12.7439 11.1367 12.7448 8.70986C12.7457 8.61727 12.8065 8.54761 12.8826 8.54761C12.9587 8.54761 13.0204 8.61904 13.0204 8.70986V8.7178C13.0249 11.1428 14.4638 13.1111 16.2276 13.1111C16.3046 13.1111 16.3654 13.1816 16.3654 13.2725C16.3654 13.3633 16.3055 13.4347 16.2276 13.4347C14.4585 13.4347 13.0195 15.41 13.0195 17.8377C13.0195 17.9286 12.9595 18 12.8826 18Z" fill="white"/>
</svg>
