<svg width="30" height="30" viewBox="0 0 30 30" fill="none" xmlns="http://www.w3.org/2000/svg">
<path d="M15 30C23.2843 30 30 23.2843 30 15C30 6.71573 23.2843 0 15 0C6.71573 0 0 6.71573 0 15C0 23.2843 6.71573 30 15 30Z" fill="#DBDBDB"/>
<path d="M15.0001 20.7064C18.7046 20.7064 21.7077 17.7032 21.7077 13.9987C21.7077 10.2941 18.7046 7.29099 15.0001 7.29099C11.2955 7.29099 8.29236 10.2941 8.29236 13.9987C8.29236 17.7032 11.2955 20.7064 15.0001 20.7064Z" fill="white"/>
<path d="M24.8337 25.3725C22.2707 27.8062 18.8084 29.3003 15.0013 29.3003C11.1942 29.3003 7.73043 27.8062 5.16602 25.3725C6.3613 23.5265 8.44013 22.3053 10.802 22.3053H19.2006C21.5624 22.3053 23.6398 23.5265 24.8337 25.3725Z" fill="white"/>
</svg>
