<svg width="24" height="24" viewBox="0 0 24 24" fill="none" xmlns="http://www.w3.org/2000/svg">
<path d="M18.98 19.4427C20.6479 19.4427 22 18.2025 22 16.6727C22 15.1429 20.6479 13.9027 18.98 13.9027C17.3121 13.9027 15.96 15.1429 15.96 16.6727C15.96 18.2025 17.3121 19.4427 18.98 19.4427Z" stroke="white" stroke-width="2.09" stroke-linecap="round" stroke-linejoin="round"/>
<path d="M22 2.84269V6.24269L8.03998 8.50269V4.80269C8.03998 4.39269 8.35998 4.03269 8.80998 3.96269L20.91 2.01269C21.48 1.92269 22 2.32269 22 2.85269V2.84269Z" stroke="white" stroke-width="2.09" stroke-linecap="round" stroke-linejoin="round"/>
<path d="M22 16.6727V6.24268" stroke="white" stroke-width="2.09" stroke-linecap="round" stroke-linejoin="round"/>
<path d="M5.02 21.9927C6.6879 21.9927 8.04 20.7525 8.04 19.2227C8.04 17.6929 6.6879 16.4527 5.02 16.4527C3.3521 16.4527 2 17.6929 2 19.2227C2 20.7525 3.3521 21.9927 5.02 21.9927Z" stroke="white" stroke-width="2.09" stroke-linecap="round" stroke-linejoin="round"/>
<path d="M8.03998 19.2227V8.49268" stroke="white" stroke-width="2.09" stroke-linecap="round" stroke-linejoin="round"/>
</svg>
