<svg width="28" height="25" viewBox="0 0 28 25" fill="none" xmlns="http://www.w3.org/2000/svg">
<g clip-path="url(#clip0_21_234)">
<path d="M23.4296 9.14055C25.9537 9.14055 27.9999 7.09437 27.9999 4.57027C27.9999 2.04618 25.9537 0 23.4296 0C20.9056 0 18.8594 2.04618 18.8594 4.57027C18.8594 7.09437 20.9056 9.14055 23.4296 9.14055Z" fill="#FD0036"/>
<path d="M23.6836 11.4222C23.1729 13.4789 21.7098 15.1671 19.6903 17.0153C17.2858 19.2252 15.1228 21.0694 13.0799 22.6581C10.5001 20.6691 8.34403 18.8332 6.49301 17.0388C4.42804 15.0387 2.68744 13.1835 2.3396 10.7417C2.28576 10.3566 2.27058 9.96046 2.29819 9.5643C2.47349 6.90855 4.49705 4.16583 7.58209 4.16583C9.43725 4.16583 11.1295 5.11136 12.1082 6.69598L13.0799 8.26955L14.0558 6.69598C14.6659 5.71318 15.5452 4.97333 16.5736 4.55509C16.5777 3.66339 16.7489 2.81035 17.065 2.02908C15.5411 2.33827 14.1538 3.10298 13.0799 4.23071C11.6623 2.73719 9.69676 1.88001 7.58209 1.88001C3.15951 1.87862 0.260819 5.70766 0.0165007 9.41523C-0.0180075 9.96736 0.00131708 10.5236 0.0772352 11.0647C0.564492 14.4783 3.07117 16.909 4.90425 18.68C6.81739 20.5352 9.03834 22.4248 11.6858 24.4677C12.0972 24.7838 12.5885 24.9439 13.0799 24.9439C13.5713 24.9439 14.0669 24.7838 14.4782 24.4636C16.5736 22.8362 18.7835 20.9506 21.2363 18.6993C23.4835 16.6385 25.6258 14.2878 26.0827 11.0647C26.0909 11.004 26.0978 10.9433 26.1061 10.8825C25.3552 11.2028 24.5408 11.3891 23.6836 11.4236V11.4222Z" fill="black"/>
</g>
<defs>
<clipPath id="clip0_21_234">
<rect width="28" height="24.9439" fill="white"/>
</clipPath>
</defs>
</svg>
