<svg width="82" height="38" viewBox="0 0 82 38" fill="none" xmlns="http://www.w3.org/2000/svg">
<path d="M62.2358 37C72.177 37 80.2358 28.9411 80.2358 19C80.2358 9.05888 72.177 1 62.2358 1C52.2947 1 44.2358 9.05888 44.2358 19C44.2358 28.9411 52.2947 37 62.2358 37Z" fill="#DBDBDB" stroke="white" stroke-width="2" stroke-miterlimit="10"/>
<path d="M62.2358 25.8476C66.6812 25.8476 70.285 22.2439 70.285 17.7984C70.285 13.3529 66.6812 9.74916 62.2358 9.74916C57.7903 9.74916 54.1865 13.3529 54.1865 17.7984C54.1865 22.2439 57.7903 25.8476 62.2358 25.8476Z" fill="white"/>
<path d="M74.0362 31.4471C70.9607 34.3675 66.8059 36.1604 62.2374 36.1604C57.6689 36.1604 53.5123 34.3675 50.4351 31.4471C51.8694 29.2318 54.364 27.7664 57.1982 27.7664H67.2765C70.1108 27.7664 72.6036 29.2318 74.0362 31.4471Z" fill="white"/>
<path d="M40.5774 37C50.5185 37 58.5774 28.9411 58.5774 19C58.5774 9.05888 50.5185 1 40.5774 1C30.6363 1 22.5774 9.05888 22.5774 19C22.5774 28.9411 30.6363 37 40.5774 37Z" fill="#DBDBDB" stroke="white" stroke-width="2" stroke-miterlimit="10"/>
<path d="M40.5773 25.8476C45.0228 25.8476 48.6265 22.2439 48.6265 17.7984C48.6265 13.3529 45.0228 9.74916 40.5773 9.74916C36.1318 9.74916 32.5281 13.3529 32.5281 17.7984C32.5281 22.2439 36.1318 25.8476 40.5773 25.8476Z" fill="white"/>
<path d="M52.3778 31.4471C49.3022 34.3675 45.1475 36.1604 40.5789 36.1604C36.0104 36.1604 31.8539 34.3675 28.7766 31.4471C30.211 29.2318 32.7055 27.7664 35.5398 27.7664H45.6181C48.4523 27.7664 50.9452 29.2318 52.3778 31.4471Z" fill="white"/>
<path d="M19 37C28.9411 37 37 28.9411 37 19C37 9.05888 28.9411 1 19 1C9.05888 1 1 9.05888 1 19C1 28.9411 9.05888 37 19 37Z" fill="#DBDBDB" stroke="white" stroke-width="2" stroke-miterlimit="10"/>
<path d="M19.0002 25.8476C23.4456 25.8476 27.0494 22.2439 27.0494 17.7984C27.0494 13.3529 23.4456 9.74916 19.0002 9.74916C14.5547 9.74916 10.9509 13.3529 10.9509 17.7984C10.9509 22.2439 14.5547 25.8476 19.0002 25.8476Z" fill="white"/>
<path d="M30.8007 31.4471C27.7251 34.3675 23.5703 36.1604 19.0018 36.1604C14.4333 36.1604 10.2768 34.3675 7.19946 31.4471C8.63381 29.2318 11.1284 27.7664 13.9626 27.7664H24.041C26.8752 27.7664 29.368 29.2318 30.8007 31.4471Z" fill="white"/>
</svg>
