<svg width="30" height="30" viewBox="0 0 30 30" fill="none" xmlns="http://www.w3.org/2000/svg">
<path d="M8.49487 1.5H21.5051C25.3683 1.5 28.5 4.63171 28.5 8.49487V21.5051C28.5 25.3683 25.3683 28.5 21.5051 28.5H8.49487C4.63171 28.5 1.5 25.3683 1.5 21.5051V8.49487C1.5 4.63171 4.63171 1.5 8.49487 1.5Z" stroke="black" stroke-width="3" stroke-linecap="round" stroke-linejoin="round"/>
<path d="M3.6001 9H12.6787H20.0401H26.4001" stroke="black" stroke-width="3" stroke-linecap="round" stroke-linejoin="round"/>
<path d="M20.0228 8.70269L16.733 2.99995" stroke="black" stroke-width="3" stroke-linecap="round" stroke-linejoin="round"/>
<path d="M12.6875 8.7027L9.41284 3.03437" stroke="black" stroke-width="3" stroke-linecap="round" stroke-linejoin="round"/>
<path d="M19.742 16.9571L13.2513 13.2094C12.2519 12.6318 11.0027 13.3542 11.0027 14.5075V22.003C11.0027 23.1563 12.2519 23.8787 13.2513 23.3011L19.742 19.5534C20.7414 18.9758 20.7414 17.5347 19.742 16.9571Z" fill="black"/>
</svg>
