<svg width="80" height="80" viewBox="0 0 80 80" fill="none" xmlns="http://www.w3.org/2000/svg">
<g clip-path="url(#clip0_21_227)">
<path d="M40 80C17.9431 80 0 62.0569 0 40C0 17.9431 17.9431 0 40 0C62.0569 0 80 17.9431 80 40C80 62.0569 62.0569 80 40 80ZM40 2.37914C19.2559 2.37914 2.37914 19.2559 2.37914 40C2.37914 60.7441 19.2559 77.6209 40 77.6209C60.7441 77.6209 77.6209 60.7441 77.6209 40C77.6209 19.2559 60.7441 2.37914 40 2.37914Z" fill="url(#paint0_linear_21_227)"/>
<path d="M40 75.2349C59.4597 75.2349 75.2349 59.4597 75.2349 40C75.2349 20.5402 59.4597 4.76501 40 4.76501C20.5402 4.76501 4.76501 20.5402 4.76501 40C4.76501 59.4597 20.5402 75.2349 40 75.2349Z" fill="#DBDBDB"/>
<path d="M40 53.4042C48.702 53.4042 55.7564 46.3498 55.7564 37.6478C55.7564 28.9458 48.702 21.8915 40 21.8915C31.298 21.8915 24.2437 28.9458 24.2437 37.6478C24.2437 46.3498 31.298 53.4042 40 53.4042Z" fill="white"/>
<path d="M63.0997 64.3651C57.0792 70.0818 48.9463 73.5915 40.0034 73.5915C31.0605 73.5915 22.9242 70.0818 16.9004 64.3651C19.7081 60.0287 24.5913 57.1602 30.1392 57.1602H49.8676C55.4155 57.1602 60.2953 60.0287 63.0997 64.3651Z" fill="white"/>
</g>
<defs>
<linearGradient id="paint0_linear_21_227" x1="11.7304" y1="68.2696" x2="68.2696" y2="11.7304" gradientUnits="userSpaceOnUse">
<stop stop-color="#FEC81E"/>
<stop offset="0.5" stop-color="#FC2954"/>
<stop offset="1" stop-color="#CA02C4"/>
</linearGradient>
<clipPath id="clip0_21_227">
<rect width="80" height="80" fill="white"/>
</clipPath>
</defs>
</svg>
