<svg width="70" height="72" viewBox="0 0 70 72" fill="none" xmlns="http://www.w3.org/2000/svg">
<path d="M56.8838 69.9494C63.2535 69.9494 68.4172 64.7038 68.4172 58.233C68.4172 51.7622 63.2535 46.5165 56.8838 46.5165C50.5141 46.5165 45.3505 51.7622 45.3505 58.233C45.3505 64.7038 50.5141 69.9494 56.8838 69.9494Z" fill="#4192ED"/>
<path d="M61.3 57.1312H57.9718V53.7503C57.9718 53.1408 57.4871 52.6485 56.8873 52.6485C56.2874 52.6485 55.8027 53.1408 55.8027 53.7503V57.1312H52.4745C51.8747 57.1312 51.39 57.6236 51.39 58.233C51.39 58.8424 51.8747 59.3347 52.4745 59.3347H55.8027V62.7157C55.8027 63.3252 56.2874 63.8175 56.8873 63.8175C57.4871 63.8175 57.9718 63.3252 57.9718 62.7157V59.3347H61.3C61.8998 59.3347 62.3845 58.8424 62.3845 58.233C62.3845 57.6236 61.8998 57.1312 61.3 57.1312Z" fill="white"/>
<mask id="mask0_4_51" style="mask-type:luminance" maskUnits="userSpaceOnUse" x="0" y="0" width="70" height="72">
<path d="M70 36.0052C70 40.0059 69.3493 43.8414 68.1563 47.4289C65.3331 44.3819 61.3237 42.4745 56.8873 42.4745C48.3364 42.4745 41.3784 49.5429 41.3784 58.2295C41.3784 62.7398 43.256 66.8094 46.2554 69.6774C42.7239 70.8894 38.945 71.5538 35.0102 71.5538C15.6682 71.5573 0 55.6404 0 36.0052C0 16.3699 15.6682 0.446167 35.0034 0.446167C54.3386 0.446167 70 16.363 70 36.0052Z" fill="white"/>
</mask>
<g mask="url(#mask0_4_51)">
<path d="M35 71.5573C54.33 71.5573 70 55.6385 70 36.0017C70 16.3649 54.33 0.446167 35 0.446167C15.67 0.446167 0 16.3649 0 36.0017C0 55.6385 15.67 71.5573 35 71.5573Z" fill="#DBDBDB"/>
<path d="M35.0001 49.5292C43.644 49.5292 50.6513 42.4107 50.6513 33.6296C50.6513 24.8484 43.644 17.7299 35.0001 17.7299C26.3562 17.7299 19.3489 24.8484 19.3489 33.6296C19.3489 42.4107 26.3562 49.5292 35.0001 49.5292Z" fill="white"/>
<path d="M57.9448 60.588C51.9629 66.3549 43.8865 69.8978 35.0035 69.8978C26.1205 69.8978 18.0373 66.3584 12.0554 60.588C14.8447 56.2119 19.6946 53.3164 25.2054 53.3164H44.8016C50.3124 53.3164 55.1589 56.2119 57.9448 60.588Z" fill="white"/>
</g>
</svg>
