<svg width="20" height="20" viewBox="0 0 20 20" fill="none" xmlns="http://www.w3.org/2000/svg">
<path d="M19.7563 3.15627L16.8437 0.243718C16.5158 -0.0812395 15.9916 -0.0812395 15.6636 0.243718L12.3285 3.57881C12.3285 3.57881 12.3255 3.58183 12.3225 3.58485C12.3195 3.58787 12.3195 3.58787 12.3165 3.59089L0.243718 15.6656C-0.0812395 15.9906 -0.0812395 16.5178 0.243718 16.8427L3.15627 19.7553C3.32025 19.9193 3.53153 19.9997 3.74481 19.9997C3.9581 19.9997 4.17239 19.9193 4.33336 19.7553L19.7563 4.33336C20.0812 4.0084 20.0812 3.48122 19.7563 3.15627ZM3.74582 17.9896L2.01036 16.2542L12.912 5.3525L14.6475 7.08795L3.74582 17.9896Z" fill="white"/>
<path d="M17.7542 14.8537L16.9494 14.6072C16.5077 14.4724 16.1626 14.1263 16.0268 13.6847L15.7803 12.8798C15.6998 12.6183 15.3296 12.6183 15.2491 12.8798L15.0026 13.6847C14.8678 14.1263 14.5217 14.4714 14.0801 14.6072L13.2752 14.8537C13.0136 14.9342 13.0136 15.3044 13.2752 15.3849L14.0801 15.6314C14.5217 15.7662 14.8668 16.1123 15.0026 16.554L15.2491 17.3588C15.3296 17.6204 15.6998 17.6204 15.7803 17.3588L16.0268 16.554C16.1616 16.1123 16.5077 15.7672 16.9494 15.6314L17.7542 15.3849C18.0168 15.3044 18.0168 14.9342 17.7542 14.8537Z" fill="white"/>
<path d="M2.48923 4.65831L3.29408 4.90479C3.73574 5.0396 4.08082 5.38569 4.21664 5.82735L4.46212 6.6322C4.54261 6.89378 4.91284 6.89378 4.99332 6.6322L5.23981 5.82735C5.37462 5.38569 5.7207 5.04061 6.16236 4.90479L6.96721 4.65831C7.2298 4.57782 7.2298 4.20759 6.96721 4.12711L6.16236 3.88062C5.7207 3.74581 5.37562 3.39972 5.23981 2.95806L4.99332 2.15321C4.91284 1.89164 4.54261 1.89164 4.46212 2.15321L4.21664 2.95806C4.08183 3.39972 3.73574 3.7448 3.29408 3.88062L2.48923 4.12711C2.22665 4.20759 2.22665 4.57782 2.48923 4.65831Z" fill="white"/>
</svg>
